<?xml version="1.0" encoding="utf-8"?>
<!-- Generator: Adobe Illustrator 23.0.3, SVG Export Plug-In . SVG Version: 6.00 Build 0)  -->
<svg version="1.1" id="Layer_1" xmlns="http://www.w3.org/2000/svg" xmlns:xlink="http://www.w3.org/1999/xlink" x="0px" y="0px"
	 viewBox="0 0 150 150" style="enable-background:new 0 0 150 150;" xml:space="preserve">
<style type="text/css">
	.st0{fill:#F77415;}
	.st1{fill:#FFFFFF;}
	.st2{font-family:'Tahoma';}
	.st3{font-size:13.9166px;}
</style>
<g>
	<circle class="st0" cx="75.35" cy="77.38" r="65.35"/>
	<g>
		<g>
			<path class="st1" d="M110.65,84.45L110.65,84.45c-2.03,0-3.68-1.65-3.68-3.68V50.93c0-2.03,1.65-3.68,3.68-3.68h0
				c2.03,0,3.68,1.65,3.68,3.68v29.84C114.33,82.8,112.69,84.45,110.65,84.45z"/>
			<path class="st1" d="M89.4,57.69c0,0.21,0,0.65,0.2,1.26c0.61,1.8,4.09,3.81,4.1,3.82c1.16,0.62,2.32,1.24,3.48,1.86
				c0.62,0.36,1.44,0.88,2.32,1.61c0.72,0.59,1.38,1.14,2.07,2.04c1.28,1.69,2.04,3.8,2.04,6.09c0,5.58-4.52,10.1-10.1,10.1
				c-2.34,0-4.48-0.79-6.19-2.12c-2.38-1.85-3.91-4.74-3.91-7.98c0-0.6,0.05-1.19,0.15-1.77c0.61-0.25,1.28-0.39,1.98-0.39
				c1.97,0,3.68,1.09,4.57,2.7c0.09,0.47,0.27,0.91,0.51,1.3c0.71,1.16,1.98,1.94,3.44,1.94c2.22,0,4.02-1.8,4.02-4.02
				c0-0.21,0-0.65-0.2-1.26c-0.61-1.8-4.09-3.81-4.1-3.82c-1.01-0.55-2.02-1.1-3.02-1.65c-0.02-0.01-0.05-0.02-0.07-0.03
				c-0.15-0.08-0.29-0.16-0.44-0.24c-0.96-0.54-1.71-1.09-2.27-1.55c-0.7-0.56-1.37-1.12-2.07-2.04c-1.28-1.69-2.04-3.8-2.04-6.09
				c0-5.58,4.52-10.1,10.1-10.1c2.34,0,4.48,0.79,6.19,2.12c2.38,1.85,3.91,4.74,3.91,7.98c0,0.6-0.05,1.19-0.15,1.77
				c-0.61,0.25-1.28,0.39-1.98,0.39c-1.97,0-3.68-1.09-4.57-2.7c-0.09-0.47-0.27-0.91-0.51-1.3c-0.71-1.16-1.98-1.94-3.44-1.94
				C91.2,53.67,89.4,55.47,89.4,57.69z"/>
			<g>
				<path class="st1" d="M59.48,84.25L59.48,84.25c-2.01-0.55-3.19-2.63-2.64-4.64l8.12-29.5c0.55-2.01,2.63-3.19,4.64-2.64h0
					c2.01,0.55,3.19,2.63,2.64,4.64l-8.12,29.5C63.57,83.63,61.49,84.81,59.48,84.25z"/>
				<path class="st1" d="M78.01,84.23L78.01,84.23c-2.01,0.56-4.09-0.61-4.65-2.62l-8.22-29.47c-0.56-2.01,0.61-4.09,2.62-4.65h0
					c2.01-0.56,4.09,0.61,4.65,2.62l8.22,29.47C81.19,81.59,80.02,83.67,78.01,84.23z"/>
			</g>
			<path class="st1" d="M40.23,57.69c0,0.21,0,0.65,0.2,1.26c0.61,1.8,4.09,3.81,4.1,3.82c1.16,0.62,2.32,1.24,3.48,1.86
				c0.62,0.36,1.44,0.88,2.32,1.61c0.72,0.59,1.38,1.14,2.07,2.04c1.28,1.69,2.04,3.8,2.04,6.09c0,5.58-4.52,10.1-10.1,10.1
				c-2.34,0-4.48-0.79-6.19-2.12c-2.38-1.85-3.91-4.74-3.91-7.98c0-0.6,0.05-1.19,0.15-1.77c0.61-0.25,1.28-0.39,1.98-0.39
				c1.97,0,3.68,1.09,4.57,2.7c0.09,0.47,0.27,0.91,0.51,1.3c0.71,1.16,1.98,1.94,3.44,1.94c2.22,0,4.02-1.8,4.02-4.02
				c0-0.21,0-0.65-0.2-1.26c-0.61-1.8-4.09-3.81-4.1-3.82c-1.01-0.55-2.02-1.1-3.02-1.65c-0.02-0.01-0.05-0.02-0.07-0.03
				c-0.15-0.08-0.29-0.16-0.44-0.24c-0.96-0.54-1.71-1.09-2.27-1.55c-0.7-0.56-1.37-1.12-2.07-2.04c-1.28-1.69-2.04-3.8-2.04-6.09
				c0-5.58,4.52-10.1,10.1-10.1c2.34,0,4.48,0.79,6.19,2.12c2.38,1.85,3.91,4.74,3.91,7.98c0,0.6-0.05,1.19-0.15,1.77
				c-0.61,0.25-1.28,0.39-1.98,0.39c-1.97,0-3.68-1.09-4.57-2.7c-0.09-0.47-0.27-0.91-0.51-1.3c-0.71-1.16-1.98-1.94-3.44-1.94
				C42.03,53.67,40.23,55.47,40.23,57.69z"/>
		</g>
		<text transform="matrix(1 0 0 1 33.6914 101.708)" class="st1 st2 st3">Food Delivery</text>
	</g>
</g>
</svg>
